<?xml version="1.0" encoding="UTF-8"?>
<svg width="190px" height="116px" viewBox="0 0 190 116" version="1.1" xmlns="http://www.w3.org/2000/svg" xmlns:xlink="http://www.w3.org/1999/xlink">
    <!-- Generator: Sketch 43.1 (39012) - http://www.bohemiancoding.com/sketch -->
    <title>head2</title>
    <desc>Created with Sketch.</desc>
    <defs>
        <path d="M19.9993333,0 C8.9545,0 0,8.9545 0,19.9993333 C0,31.0443333 8.9545,39.9993333 19.9993333,39.9993333 C31.0443333,39.9993333 39.9993333,31.0443333 39.9993333,19.9993333 C39.9993333,8.9545 31.0443333,0 19.9993333,0 Z" id="path-1"></path>
        <path d="M14.9995,0 C6.715875,0 0,6.715875 0,14.9995 C0,23.28325 6.715875,29.9995 14.9995,29.9995 C23.28325,29.9995 29.9995,23.28325 29.9995,14.9995 C29.9995,6.715875 23.28325,0 14.9995,0 Z" id="path-3"></path>
    </defs>
    <g id="Page-1" stroke="none" stroke-width="1" fill="none" fill-rule="evenodd">
        <g id="head2">
            <g id="Bell-30" transform="translate(126.000000, 60.000000)" fill-rule="nonzero" fill="#767579">
                <path d="M11,25 C8.9678874,25 7.2821577,23.6940221 7,22 L15,22 C14.7178423,23.6940221 13.0321126,25 11,25 Z" id="Fill-1"></path>
                <path d="M11,20 L21.0155325,20 C22.1600511,20 22.275455,18.5113386 21.5235294,18.0245177 C20.7716037,17.5376967 20.6188534,17.4765632 20.0251095,17.013766 C18.3583085,15.7145684 17.1596664,13.0433884 17.1596664,8.0617705 C17.1596664,4.73365751 14.4015382,2.02455764 11,2 L11,20 Z" id="Combined-Shape"></path>
                <path d="M1.92482563e-08,20 L10.0155325,20 C11.1600511,20 11.275455,18.5113386 10.5235294,18.0245177 C9.77160372,17.5376967 9.61885342,17.4765632 9.02510952,17.013766 C7.35830852,15.7145684 6.15966642,13.0433884 6.15966642,8.0617705 C6.15966642,4.73365751 3.40153819,2.02455764 1.92482563e-08,2 L1.92482563e-08,20 Z" id="Combined-Shape" transform="translate(5.500000, 11.000000) scale(-1, 1) translate(-5.500000, -11.000000) "></path>
                <rect id="Rectangle-6" x="10" y="0" width="2" height="4.24242424" rx="1"></rect>
                <path d="M7,21.9998 C7.282,23.6938 8.968,24.9998 11,24.9998 C13.032,24.9998 14.718,23.6938 15,21.9998 L7,21.9998 Z M21.5234,18.0242 C20.7714,17.5382 20.6184,17.4762 20.0244,17.0132 C18.3584,15.7142 17.1594,13.0432 17.1594,8.0622 C17.1594,5.0672 14.9244,2.5812 12.0004,2.0932 L12.0004,1.0052 C12.0004,0.4542 11.5524,0.0002 11.0004,0.0002 C10.4434,0.0002 10.0004,0.4502 10.0004,1.0052 L10.0004,2.0932 C7.0754,2.5812 4.8404,5.0672 4.8404,8.0622 C4.8404,13.0432 3.6414,15.7142 1.9754,17.0132 C1.3814,17.4762 1.2284,17.5382 0.4764,18.0242 C-0.2756,18.5112 -0.1606,20.0002 0.9844,20.0002 L11.0004,20.0002 L21.0154,20.0002 C22.1604,20.0002 22.2754,18.5112 21.5234,18.0242 L21.5234,18.0242 Z" id="Combined-Shape"></path>
            </g>
            <g id="Bell-30-Copy" transform="translate(148.000000, 60.000000)" fill-rule="nonzero">
                <path d="M11,25 C8.9678874,25 7.2821577,23.6940221 7,22 L15,22 C14.7178423,23.6940221 13.0321126,25 11,25 Z" id="Fill-1" fill="#767579"></path>
                <path d="M11,20 L21.0155325,20 C22.1600511,20 22.275455,18.5113386 21.5235294,18.0245177 C20.7716037,17.5376967 20.6188534,17.4765632 20.0251095,17.013766 C18.3583085,15.7145684 17.1596664,13.0433884 17.1596664,8.0617705 C17.1596664,4.73365751 14.4015382,2.02455764 11,2 L11,20 Z" id="Combined-Shape" fill="#767579"></path>
                <path d="M1.92482563e-08,20 L10.0155325,20 C11.1600511,20 11.275455,18.5113386 10.5235294,18.0245177 C9.77160372,17.5376967 9.61885342,17.4765632 9.02510952,17.013766 C7.35830852,15.7145684 6.15966642,13.0433884 6.15966642,8.0617705 C6.15966642,4.73365751 3.40153819,2.02455764 1.92482563e-08,2 L1.92482563e-08,20 Z" id="Combined-Shape" fill="#767579" transform="translate(5.500000, 11.000000) scale(-1, 1) translate(-5.500000, -11.000000) "></path>
                <rect id="Rectangle-6" fill="#767579" x="10" y="0" width="2" height="4.24242424" rx="1"></rect>
                <path d="M7,21.9998 C7.282,23.6938 8.968,24.9998 11,24.9998 C13.032,24.9998 14.718,23.6938 15,21.9998 L7,21.9998 Z M21.5234,18.0242 C20.7714,17.5382 20.6184,17.4762 20.0244,17.0132 C18.3584,15.7142 17.1594,13.0432 17.1594,8.0622 C17.1594,5.0672 14.9244,2.5812 12.0004,2.0932 L12.0004,1.0052 C12.0004,0.4542 11.5524,0.0002 11.0004,0.0002 C10.4434,0.0002 10.0004,0.4502 10.0004,1.0052 L10.0004,2.0932 C7.0754,2.5812 4.8404,5.0672 4.8404,8.0622 C4.8404,13.0432 3.6414,15.7142 1.9754,17.0132 C1.3814,17.4762 1.2284,17.5382 0.4764,18.0242 C-0.2756,18.5112 -0.1606,20.0002 0.9844,20.0002 L11.0004,20.0002 L21.0154,20.0002 C22.1604,20.0002 22.2754,18.5112 21.5234,18.0242 L21.5234,18.0242 Z" id="Combined-Shape" fill="#3B393F"></path>
            </g>
            <g id="bell-40" transform="translate(70.000000, 60.000000)" fill-rule="nonzero">
                <path d="M16,4.26660302 C19.3606521,5.15688647 21.8395754,8.1719619 21.8395754,11.7455956 C21.8395754,18.1109963 23.36512,21.5241707 25.486503,23.1842566 C26.242177,23.7756085 26.4365865,23.8537236 27.3935828,24.4757726 C28.3505791,25.0978216 28.2037014,27 26.7470414,27 L1.25295865,27 C-0.20370145,27 -0.35057914,25.0978216 0.60641718,24.4757726 C1.5634135,23.8537236 1.75782295,23.7756085 2.51349702,23.1842566 C4.63488,21.5241707 6.1604246,18.1109963 6.1604246,11.7455956 C6.1604246,8.1719619 8.6393479,5.15688647 12,4.26660302 L12,1.9973917 C12,0.89426273 12.8877296,0 14,0 C15.1045695,0 16,0.89585781 16,1.9973917 L16,4.26660302 Z M14,33 C11.4598593,33 9.3526971,31.2586961 9,29 L19,29 C18.6473029,31.2586961 16.5401407,33 14,33 Z" id="Combined-Shape" fill="#767579"></path>
                <path d="M44,4.26660302 C47.3606521,5.15688647 49.8395754,8.1719619 49.8395754,11.7455956 C49.8395754,18.1109963 51.36512,21.5241707 53.486503,23.1842566 C54.242177,23.7756085 54.4365865,23.8537236 55.3935828,24.4757726 C56.3505791,25.0978216 56.2037014,27 54.7470414,27 L29.2529587,27 C27.7962986,27 27.6494209,25.0978216 28.6064172,24.4757726 C29.5634135,23.8537236 29.757823,23.7756085 30.513497,23.1842566 C32.63488,21.5241707 34.1604246,18.1109963 34.1604246,11.7455956 C34.1604246,8.1719619 36.6393479,5.15688647 40,4.26660302 L40,1.9973917 C40,0.89426273 40.8877296,0 42,0 C43.1045695,0 44,0.89585781 44,1.9973917 L44,4.26660302 Z M42,33 C39.4598593,33 37.3526971,31.2586961 37,29 L47,29 C46.6473029,31.2586961 44.5401407,33 42,33 Z" id="Combined-Shape" fill="#3B393F"></path>
            </g>
            <g id="exit" transform="translate(72.000000, 100.000000)" fill-rule="nonzero" fill="#9D9C9F">
                <path d="M11,12.0126343 L11,11.0093689 C11,10.4519098 11.4438648,10 12,10 C12.5522847,10 13,10.4433532 13,11.0093689 L13,11.5110016 L13,9.0148102 L6.0025382,9.0355308 C5.45025523,9.0369325 5.00140506,8.5903551 5.00000329,8.0380721 C4.99860152,7.48578913 5.44517897,7.03693897 5.99746194,7.0355372 L13,7.01480157 L13,4.83174133 L13,4.9906311 C13,5.54809015 12.5561352,6 12,6 C11.4477153,6 11,5.55664682 11,4.9906311 L11,4.67285156 L10.9985201,4.67285156 L11,2.00684547 C11,2.00264837 2.00684547,2 2.00684547,2 C2.00264837,2 2,13.9931545 2,13.9931545 C2,13.9973516 10.9931545,14 10.9931545,14 C10.994884,14 10.9976739,12.0126343 10.9976739,12.0126343 L11,12.0126343 Z M16.5815819,9.0042045 L13.0011597,9.0148067 L13.0011597,12.0126343 L13,12.0126343 L13,13.9931545 C13,15.1016643 12.1021766,16 10.9931545,16 L2.00684547,16 C0.898335714,16 0,15.1021766 0,13.9931545 L0,2.00684547 C0,0.89833571 0.897823373,0 2.00684547,0 L10.9931545,0 C12.1016643,0 13,0.89782337 13,2.00684547 L13,4.67285156 L13.0011597,4.67285156 L13.0011597,7.01479814 L16.5899576,7.00417114 L15.2928932,5.70710678 C14.9023689,5.31658249 14.9023689,4.68341751 15.2928932,4.29289322 C15.6834175,3.90236893 16.3165825,3.90236893 16.7071068,4.29289322 L19.7071068,7.29289322 C19.9023689,7.48815536 20,7.74407768 20,8 C20,8.2559223 19.9023689,8.5118446 19.7071068,8.7071068 L16.7071068,11.7071068 C16.3165825,12.0976311 15.6834175,12.0976311 15.2928932,11.7071068 C14.9023689,11.3165825 14.9023689,10.6834175 15.2928932,10.2928932 L16.5815819,9.0042045 Z" id="Combined-Shape"></path>
            </g>
            <g id="exit-copy" transform="translate(92.000000, 100.000000)" fill-rule="nonzero" fill="#767579">
                <path d="M11,12.0126343 L11,11.0093689 C11,10.4519098 11.4438648,10 12,10 C12.5522847,10 13,10.4433532 13,11.0093689 L13,11.5110016 L13,9.0148102 L6.0025382,9.0355308 C5.45025523,9.0369325 5.00140506,8.5903551 5.00000329,8.0380721 C4.99860152,7.48578913 5.44517897,7.03693897 5.99746194,7.0355372 L13,7.01480157 L13,4.83174133 L13,4.9906311 C13,5.54809015 12.5561352,6 12,6 C11.4477153,6 11,5.55664682 11,4.9906311 L11,4.67285156 L10.9985201,4.67285156 L11,2.00684547 C11,2.00264837 2.00684547,2 2.00684547,2 C2.00264837,2 2,13.9931545 2,13.9931545 C2,13.9973516 10.9931545,14 10.9931545,14 C10.994884,14 10.9976739,12.0126343 10.9976739,12.0126343 L11,12.0126343 Z M16.5815819,9.0042045 L13.0011597,9.0148067 L13.0011597,12.0126343 L13,12.0126343 L13,13.9931545 C13,15.1016643 12.1021766,16 10.9931545,16 L2.00684547,16 C0.898335714,16 0,15.1021766 0,13.9931545 L0,2.00684547 C0,0.89833571 0.897823373,0 2.00684547,0 L10.9931545,0 C12.1016643,0 13,0.89782337 13,2.00684547 L13,4.67285156 L13.0011597,4.67285156 L13.0011597,7.01479814 L16.5899576,7.00417114 L15.2928932,5.70710678 C14.9023689,5.31658249 14.9023689,4.68341751 15.2928932,4.29289322 C15.6834175,3.90236893 16.3165825,3.90236893 16.7071068,4.29289322 L19.7071068,7.29289322 C19.9023689,7.48815536 20,7.74407768 20,8 C20,8.2559223 19.9023689,8.5118446 19.7071068,8.7071068 L16.7071068,11.7071068 C16.3165825,12.0976311 15.6834175,12.0976311 15.2928932,11.7071068 C14.9023689,11.3165825 14.9023689,10.6834175 15.2928932,10.2928932 L16.5815819,9.0042045 Z" id="Combined-Shape"></path>
            </g>
            <g id="icon_book_20_white" transform="translate(170.000000, 60.000000)" fill-rule="nonzero" fill="#FFFFFF">
                <path d="M18,2 L15,2 C12.4155705,2 11,2.79748351 11,5.00323486 L11,12.7282628 L11,13.8425155 C12.0389739,13.3053246 13.3649828,13 15,13 L18.2179757,13 L18,2 Z M15,0 L18.5092223,0 C19.3337899,0 20,0.67453079 20,1.49374104 L20,13.506259 C20,14.3344793 19.3235117,15 18.4990206,15 L18.4076122,15 L15,15 C13.4432748,15 12.3243924,15.3198675 11.5555476,15.8324619 C11.3089197,15.9968905 11.1222715,16.1665247 10.987069,16.3286588 C10.9208533,16.4080644 10.8920433,16.4528281 10.8941106,16.4487007 C10.421704,17.3918452 9,17.0556955 9,16.0008545 L9,5.00323486 C9,1.38461084 11.4577489,0 15,0 Z M11,16.0008545 C11,17.0556955 9.57829598,17.3918452 9.10588942,16.4487007 C9.10795674,16.4528281 9.07914672,16.4080644 9.01293101,16.3286588 C8.87772854,16.1665247 8.69108029,15.9968905 8.4444524,15.8324619 C7.67560763,15.3198675 6.55672524,15 5,15 L1.50097945,15 C0.67648832,15 0,14.3344793 0,13.506259 L1.77635684e-15,1.49374104 C1.77635684e-15,0.67453079 0.666210069,0 1.49077774,0 L5,0 C8.54225114,0 11,1.38461084 11,5.00323486 L11,16.0008545 Z M9,12.7282628 L9,5.00323486 C9,2.79748351 7.58442954,2 5,2 L2,2 L2,13 L5,13 C6.63501725,13 7.96102609,13.3053246 9,13.8425155 L9,12.7282628 Z" id="Combined-Shape"></path>
            </g>
            <g id="icon_eye_closed" transform="translate(36.000000, 100.000000)" fill-rule="nonzero" fill="#C4C4C6">
                <path d="M6.52195562,6.1921567 C6.99812103,6.3145108 7.49085845,6.4020383 8,6.4517625 L8,8 C8,8.5522847 8.44771525,9 9,9 C9.5522847,9 10,8.5522847 10,8 L10,6.4517625 C10.5091415,6.4020383 11.001879,6.3145108 11.4780444,6.1921567 L12.1055728,7.4472136 C12.3525621,7.9411921 12.9532351,8.1414164 13.4472136,7.8944272 C13.9411921,7.6474379 14.1414164,7.0467649 13.8944272,6.5527864 L13.3630781,5.4900883 C13.7381093,5.3040658 14.1003502,5.0946784 14.4496893,4.8639028 L15.2928932,5.7071068 C15.6834175,6.0976311 16.3165825,6.0976311 16.7071068,5.7071068 C17.0976311,5.3165825 17.0976311,4.6834175 16.7071068,4.2928932 L16.0211805,3.60696696 C16.6399461,3.01584006 17.080501,2.45799459 17.3479983,2.02999894 C17.6407086,1.56166241 17.4983355,0.94471203 17.0299989,0.6520017 C16.5616624,0.35929136 15.944712,0.50166453 15.6520017,0.97000106 C15.5969186,1.05813402 15.46685,1.24023012 15.2630287,1.4848156 C14.9134911,1.90426071 14.4918834,2.3258684 14.000305,2.71913119 C12.6049032,3.83545256 10.9435346,4.5 9,4.5 C7.05646536,4.5 5.39509676,3.83545256 3.99969505,2.71913119 C3.50811656,2.3258684 3.08650887,1.90426071 2.73697128,1.4848156 C2.53315005,1.24023012 2.40308141,1.05813402 2.3479983,0.97000106 C2.05528797,0.50166453 1.43833759,0.35929136 0.97000106,0.6520017 C0.50166453,0.94471203 0.35929136,1.56166241 0.6520017,2.02999894 C0.91949898,2.45799459 1.36005394,3.01584006 1.97881947,3.60696696 L1.29289322,4.2928932 C0.90236893,4.6834175 0.90236893,5.3165825 1.29289322,5.7071068 C1.68341751,6.0976311 2.31658249,6.0976311 2.70710678,5.7071068 L3.55031074,4.8639028 C3.89964983,5.0946784 4.26189069,5.3040658 4.63692186,5.4900883 L4.10557281,6.5527864 C3.85858356,7.0467649 4.05880791,7.6474379 4.5527864,7.8944272 C5.0467649,8.1414164 5.64743794,7.9411921 5.89442719,7.4472136 L6.52195599,6.192156 L6.52195562,6.1921567 Z" id="Combined-Shape"></path>
            </g>
            <g id="icon_eye_open" transform="translate(0.000000, 100.000000)" fill-rule="nonzero" fill="#C4C4C6">
                <path d="M15.23901,6.108 C14.885386,6.584 14.4596346,7.062 13.9647613,7.507 C12.5713023,8.759 10.9213907,9.5 9,9.5 C7.07860931,9.5 5.42969947,8.759 4.03523866,7.507 C3.54036535,7.062 3.11461402,6.584 2.76098998,6.108 C2.73093695,6.066 2.71290513,6.039 2.68485563,6 C2.71290513,5.962 2.73093695,5.934 2.76098998,5.892 C3.11461402,5.416 3.54036535,4.938 4.03523866,4.493 C4.42592811,4.143 4.83765468,3.837 5.26741308,3.572 C5.09611078,4.017 4.9929287,4.495 4.9929287,5 C4.9929287,7.209 6.78709487,9 9,9 C11.2129051,9 13.0070713,7.209 13.0070713,5 C13.0070713,4.495 12.9028874,4.017 12.7325869,3.572 C13.1633471,3.837 13.5750737,4.143 13.9647613,4.493 C14.4596346,4.938 14.885386,5.416 15.23901,5.892 C15.2700648,5.934 15.2870949,5.962 15.3151444,6 C15.2870949,6.039 15.2700648,6.066 15.23901,6.108 M9,3 C10.1059517,3 11.0035357,3.896 11.0035357,5 C11.0035357,6.105 10.1059517,7 9,7 C7.89304655,7 6.99646435,6.105 6.99646435,5 C6.99646435,3.896 7.89304655,3 9,3 M17.5,6 C17.5,5.937 17.4959929,5.876 17.4839717,5.813 C17.4709487,5.745 17.4499116,5.683 17.4218621,5.619 C17.4078374,5.585 17.4078374,5.548 17.3888038,5.514 C17.0261638,4.863 16.3369476,3.934 15.3051267,3.007 C13.5690631,1.446 11.4613435,0.5 9,0.5 C6.53865645,0.5 4.43193872,1.446 2.69487331,3.007 C1.66305245,3.934 0.97383618,4.863 0.61119623,5.514 C0.59216264,5.548 0.59216264,5.585 0.57813789,5.619 C0.55109016,5.683 0.52905127,5.745 0.51602829,5.813 C0.50400707,5.876 0.5,5.937 0.5,6 C0.5,6.064 0.50400707,6.124 0.51602829,6.187 C0.52905127,6.255 0.55109016,6.317 0.57813789,6.381 C0.59216264,6.416 0.59216264,6.452 0.61119623,6.486 C0.97383618,7.137 1.66305245,8.066 2.69487331,8.993 C4.43193872,10.554 6.53865645,11.5 9,11.5 C11.4613435,11.5 13.5690631,10.554 15.3051267,8.993 C16.3369476,8.066 17.0261638,7.137 17.3888038,6.486 C17.4078374,6.452 17.4078374,6.416 17.4218621,6.381 C17.4499116,6.317 17.4709487,6.255 17.4839717,6.187 C17.4959929,6.124 17.5,6.064 17.5,6" id="Fill-1"></path>
            </g>
            <g id="icon_eye_closed" transform="translate(54.000000, 100.000000)" fill-rule="nonzero" fill="#9D9C9F">
                <path d="M6.52195562,6.1921567 C6.99812103,6.3145108 7.49085845,6.4020383 8,6.4517625 L8,8 C8,8.5522847 8.44771525,9 9,9 C9.5522847,9 10,8.5522847 10,8 L10,6.4517625 C10.5091415,6.4020383 11.001879,6.3145108 11.4780444,6.1921567 L12.1055728,7.4472136 C12.3525621,7.9411921 12.9532351,8.1414164 13.4472136,7.8944272 C13.9411921,7.6474379 14.1414164,7.0467649 13.8944272,6.5527864 L13.3630781,5.4900883 C13.7381093,5.3040658 14.1003502,5.0946784 14.4496893,4.8639028 L15.2928932,5.7071068 C15.6834175,6.0976311 16.3165825,6.0976311 16.7071068,5.7071068 C17.0976311,5.3165825 17.0976311,4.6834175 16.7071068,4.2928932 L16.0211805,3.60696696 C16.6399461,3.01584006 17.080501,2.45799459 17.3479983,2.02999894 C17.6407086,1.56166241 17.4983355,0.94471203 17.0299989,0.6520017 C16.5616624,0.35929136 15.944712,0.50166453 15.6520017,0.97000106 C15.5969186,1.05813402 15.46685,1.24023012 15.2630287,1.4848156 C14.9134911,1.90426071 14.4918834,2.3258684 14.000305,2.71913119 C12.6049032,3.83545256 10.9435346,4.5 9,4.5 C7.05646536,4.5 5.39509676,3.83545256 3.99969505,2.71913119 C3.50811656,2.3258684 3.08650887,1.90426071 2.73697128,1.4848156 C2.53315005,1.24023012 2.40308141,1.05813402 2.3479983,0.97000106 C2.05528797,0.50166453 1.43833759,0.35929136 0.97000106,0.6520017 C0.50166453,0.94471203 0.35929136,1.56166241 0.6520017,2.02999894 C0.91949898,2.45799459 1.36005394,3.01584006 1.97881947,3.60696696 L1.29289322,4.2928932 C0.90236893,4.6834175 0.90236893,5.3165825 1.29289322,5.7071068 C1.68341751,6.0976311 2.31658249,6.0976311 2.70710678,5.7071068 L3.55031074,4.8639028 C3.89964983,5.0946784 4.26189069,5.3040658 4.63692186,5.4900883 L4.10557281,6.5527864 C3.85858356,7.0467649 4.05880791,7.6474379 4.5527864,7.8944272 C5.0467649,8.1414164 5.64743794,7.9411921 5.89442719,7.4472136 L6.52195599,6.192156 L6.52195562,6.1921567 Z" id="Combined-Shape"></path>
            </g>
            <g id="icon_eye_open" transform="translate(18.000000, 100.000000)" fill-rule="nonzero" fill="#9D9C9F">
                <path d="M15.23901,6.108 C14.885386,6.584 14.4596346,7.062 13.9647613,7.507 C12.5713023,8.759 10.9213907,9.5 9,9.5 C7.07860931,9.5 5.42969947,8.759 4.03523866,7.507 C3.54036535,7.062 3.11461402,6.584 2.76098998,6.108 C2.73093695,6.066 2.71290513,6.039 2.68485563,6 C2.71290513,5.962 2.73093695,5.934 2.76098998,5.892 C3.11461402,5.416 3.54036535,4.938 4.03523866,4.493 C4.42592811,4.143 4.83765468,3.837 5.26741308,3.572 C5.09611078,4.017 4.9929287,4.495 4.9929287,5 C4.9929287,7.209 6.78709487,9 9,9 C11.2129051,9 13.0070713,7.209 13.0070713,5 C13.0070713,4.495 12.9028874,4.017 12.7325869,3.572 C13.1633471,3.837 13.5750737,4.143 13.9647613,4.493 C14.4596346,4.938 14.885386,5.416 15.23901,5.892 C15.2700648,5.934 15.2870949,5.962 15.3151444,6 C15.2870949,6.039 15.2700648,6.066 15.23901,6.108 M9,3 C10.1059517,3 11.0035357,3.896 11.0035357,5 C11.0035357,6.105 10.1059517,7 9,7 C7.89304655,7 6.99646435,6.105 6.99646435,5 C6.99646435,3.896 7.89304655,3 9,3 M17.5,6 C17.5,5.937 17.4959929,5.876 17.4839717,5.813 C17.4709487,5.745 17.4499116,5.683 17.4218621,5.619 C17.4078374,5.585 17.4078374,5.548 17.3888038,5.514 C17.0261638,4.863 16.3369476,3.934 15.3051267,3.007 C13.5690631,1.446 11.4613435,0.5 9,0.5 C6.53865645,0.5 4.43193872,1.446 2.69487331,3.007 C1.66305245,3.934 0.97383618,4.863 0.61119623,5.514 C0.59216264,5.548 0.59216264,5.585 0.57813789,5.619 C0.55109016,5.683 0.52905127,5.745 0.51602829,5.813 C0.50400707,5.876 0.5,5.937 0.5,6 C0.5,6.064 0.50400707,6.124 0.51602829,6.187 C0.52905127,6.255 0.55109016,6.317 0.57813789,6.381 C0.59216264,6.416 0.59216264,6.452 0.61119623,6.486 C0.97383618,7.137 1.66305245,8.066 2.69487331,8.993 C4.43193872,10.554 6.53865645,11.5 9,11.5 C11.4613435,11.5 13.5690631,10.554 15.3051267,8.993 C16.3369476,8.066 17.0261638,7.137 17.3888038,6.486 C17.4078374,6.452 17.4078374,6.416 17.4218621,6.381 C17.4499116,6.317 17.4709487,6.255 17.4839717,6.187 C17.4959929,6.124 17.5,6.064 17.5,6" id="Fill-1"></path>
            </g>
            <g id="LR_logo_RU" fill-rule="nonzero">
                <path d="M14.451,6.931 C14.318,10.087 14.168,12.96 14.002,15.552 C13.835,18.143 13.611,20.478 13.33,22.553 C13.047,24.629 12.673,26.465 12.208,28.059 C11.743,29.654 11.145,31.032 10.414,32.195 C9.949,32.96 9.425,33.591 8.844,34.089 C8.263,34.586 7.656,34.985 7.026,35.285 C6.394,35.584 5.771,35.791 5.157,35.908 C4.542,36.024 3.969,36.082 3.438,36.082 C2.674,36.082 2.034,36.024 1.519,35.908 C1.004,35.791 0.499,35.617 0,35.384 L0.747,29.505 C0.946,29.572 1.145,29.621 1.345,29.654 C1.544,29.687 1.744,29.704 1.943,29.704 C2.474,29.704 2.998,29.572 3.512,29.304 C4.027,29.04 4.467,28.591 4.834,27.959 C5.331,27.23 5.763,26.159 6.129,24.746 C6.494,23.334 6.818,21.532 7.1,19.339 C7.382,17.146 7.607,14.531 7.773,11.491 C7.938,8.451 8.054,4.906 8.122,0.853 L28.702,0.853 L28.702,35.733 L21.875,35.733 L21.875,6.931 L14.451,6.931 Z" id="Fill-1" fill="#000000"></path>
                <polygon id="Fill-2" fill="#000000" points="49.159 20.834 49.01 20.834 46.867 24.471 37.997 35.733 33.911 35.733 33.911 10.818 40.389 10.818 40.389 22.677 40.09 26.066 40.289 26.066 42.333 22.528 51.302 10.818 55.388 10.818 55.388 35.733 48.911 35.733 48.911 24.371"></polygon>
                <polygon id="Fill-3" fill="#000000" points="72.974 16.548 72.974 35.732 66.297 35.732 66.297 16.548 59.172 16.548 59.172 10.817 79.901 10.817 79.901 16.548"></polygon>
                <path d="M94.318,6.233 C93.654,6.233 93.022,6.258 92.425,6.308 C91.827,6.357 91.345,6.416 90.98,6.483 L90.98,17.794 C91.112,17.827 91.311,17.861 91.578,17.893 C91.843,17.927 92.127,17.952 92.425,17.968 C92.723,17.985 93.014,17.993 93.297,17.993 L93.919,17.993 C94.817,17.993 95.706,17.911 96.585,17.744 C97.466,17.579 98.255,17.271 98.953,16.823 C99.651,16.374 100.206,15.751 100.622,14.953 C101.036,14.156 101.245,13.11 101.245,11.815 C101.245,10.718 101.046,9.813 100.647,9.098 C100.249,8.385 99.724,7.811 99.077,7.38 C98.43,6.948 97.689,6.648 96.86,6.483 C96.03,6.316 95.181,6.233 94.318,6.233 L94.318,6.233 Z M88.763,0.578 C90.439,0.428 92.109,0.353 93.77,0.353 C95.497,0.353 97.234,0.495 98.977,0.777 C100.721,1.059 102.292,1.624 103.686,2.471 C105.082,3.318 106.219,4.497 107.099,6.008 C107.978,7.521 108.419,9.489 108.419,11.913 C108.419,14.106 108.039,15.959 107.273,17.47 C106.509,18.982 105.497,20.218 104.234,21.182 C102.971,22.146 101.535,22.844 99.925,23.275 C98.313,23.708 96.643,23.923 94.918,23.923 L94.118,23.923 C93.752,23.923 93.372,23.914 92.972,23.898 C92.574,23.881 92.183,23.857 91.801,23.824 C91.419,23.791 91.144,23.757 90.979,23.724 L90.979,35.733 L84.153,35.733 L84.153,1.2 C85.547,0.935 87.085,0.727 88.763,0.578 Z" id="Fill-4" fill="#FF4C00"></path>
                <path d="M121.414,15.2 C119.389,15.259 118.443,15.769 117.597,16.763 C116.757,17.752 116.272,19.102 116.109,20.796 L125.413,20.883 C125.545,19.09 125.384,17.705 124.708,16.742 C124.031,15.778 122.868,15.157 121.414,15.2 L121.414,15.2 Z M126.583,35.608 C124.874,36.157 123.054,36.431 121.127,36.431 C117.107,36.431 114.168,35.26 112.307,32.917 C110.447,30.575 109.518,27.361 109.518,23.275 C109.518,18.891 110.564,15.601 112.656,13.409 C114.749,11.216 117.689,10.12 121.476,10.12 C122.738,10.12 123.968,10.286 125.164,10.618 C126.36,10.95 127.422,11.499 128.353,12.262 C129.284,13.027 130.031,14.057 130.595,15.352 C131.16,16.647 131.443,18.26 131.443,20.187 C131.443,20.883 131.401,21.631 131.318,22.428 C131.235,23.225 131.111,24.055 130.945,24.92 L115.926,24.92 C116.026,27.013 116.682,28.59 117.659,29.653 C118.635,30.717 120.217,31.247 122.401,31.247 C123.757,31.247 124.955,30.983 126.051,30.625 C127.417,30.179 128.703,29.571 128.703,29.571 L130.645,33.59 C129.648,34.387 128.294,35.06 126.583,35.608 Z" id="Fill-5" fill="#FF4C00"></path>
                <path d="M152.501,15.632 C152.501,15.632 150.518,15.229 148.956,15.229 C144.509,15.229 141.622,17.775 141.622,23.394 C141.622,28.665 143.824,31.269 148.468,31.269 C149.982,31.269 152.9,30.864 152.9,30.864 L153.793,35.367 C152.573,35.756 150.177,36.344 147.294,36.344 C138.254,36.344 134.93,29.747 134.93,23.052 C134.93,16.309 138.839,10.249 147.832,10.249 C149.493,10.249 151.543,10.444 153.451,10.933 L152.501,15.632" id="Fill-6" fill="#FF4C00"></path>
                <path d="M162.735,17.921 C160.703,17.921 159.058,16.276 159.058,14.245 C159.058,12.214 160.703,10.568 162.735,10.568 C164.764,10.568 166.411,12.214 166.411,14.245 C166.411,16.276 164.764,17.921 162.735,17.921 Z" id="Fill-7" fill="#FF4C00"></path>
                <path d="M166.411,32.426 C166.411,34.456 164.764,36.102 162.735,36.102 C160.703,36.102 159.058,34.456 159.058,32.426 C159.058,30.394 160.703,28.748 162.735,28.748 C164.764,28.748 166.411,30.395 166.411,32.426" id="Fill-8" fill="#FF4C00"></path>
                <path d="M4.396,57.13 C6.05,57.13 6.877,56.038 6.877,53.854 C6.877,51.698 6.061,50.62 4.428,50.62 C2.8,50.62 1.986,51.703 1.986,53.87 C1.986,56.043 2.789,57.13 4.396,57.13 L4.396,57.13 Z M4.372,58.277 C3.141,58.277 2.158,57.878 1.423,57.079 C0.688,56.28 0.321,55.21 0.321,53.87 C0.321,52.515 0.689,51.443 1.427,50.654 C2.164,49.866 3.165,49.472 4.428,49.472 C5.691,49.472 6.691,49.866 7.429,50.654 C8.166,51.443 8.535,52.511 8.535,53.854 C8.535,55.231 8.165,56.311 7.425,57.099 C6.685,57.884 5.667,58.277 4.372,58.277 L4.372,58.277 Z" id="Fill-9" fill="#FF4C00"></path>
                <path d="M12.55,56.865 L16.665,56.865 L16.665,50.806 L14.072,50.806 L14.072,50.953 C14.072,52.009 13.946,53.028 13.692,54.015 C13.438,54.999 13.058,55.95 12.55,56.865 L12.55,56.865 Z M10.164,60 L10.164,56.865 L10.949,56.865 C11.536,56.012 11.976,55.041 12.269,53.952 C12.562,52.863 12.709,51.654 12.709,50.325 L12.709,49.657 L18.235,49.657 L18.235,56.865 L19.796,56.865 L19.796,60 L18.235,60 L18.235,58.083 L11.726,58.083 L11.726,60 L10.164,60 L10.164,60 Z" id="Fill-11" fill="#FF4C00"></path>
                <polyline id="Fill-13" fill="#FF4C00" points="22.21 58.083 22.21 49.657 23.677 49.657 23.677 56.035 27.688 49.657 29.25 49.657 29.25 58.083 27.784 58.083 27.784 51.706 23.78 58.083 22.21 58.083"></polyline>
                <polyline id="Fill-14" fill="#FF4C00" points="32.545 58.083 32.545 49.657 34.106 49.657 34.106 53.079 38.023 53.079 38.023 49.657 39.585 49.657 39.585 58.083 38.023 58.083 38.023 54.228 34.106 54.228 34.106 58.083 32.545 58.083"></polyline>
                <path d="M48.179,58.083 L48.179,49.657 L49.74,49.657 L49.749,53.343 C50.478,53.343 50.945,53.272 51.151,53.134 C51.358,52.993 51.683,52.526 52.127,51.729 L52.333,51.372 C52.745,50.638 53.104,50.169 53.411,49.964 C53.718,49.76 54.222,49.657 54.925,49.657 L54.925,50.806 L54.838,50.806 C54.5,50.806 54.242,50.881 54.065,51.03 C53.888,51.181 53.654,51.519 53.364,52.048 L53.229,52.296 C52.917,52.859 52.685,53.219 52.531,53.374 C52.378,53.529 52.082,53.697 51.643,53.878 C52.055,53.987 52.343,54.112 52.507,54.255 C52.671,54.397 52.972,54.784 53.411,55.415 L53.784,55.942 L54.109,56.407 L54.521,57.005 C54.648,57.191 54.828,57.442 55.06,57.758 L55.298,58.083 L53.602,58.083 L53.364,57.766 C53.025,57.315 52.669,56.821 52.294,56.284 C51.823,55.616 51.363,55.018 50.914,54.491 L49.74,54.491 L49.74,58.083 L48.179,58.083" id="Fill-15" fill="#FF4C00"></path>
                <path d="M56.198,58.083 L56.198,56.934 C56.885,56.884 57.391,56.556 57.716,55.95 C58.041,55.345 58.204,54.421 58.204,53.181 L58.267,51.481 L58.299,50.487 L58.299,49.657 L63.872,49.657 L63.872,58.083 L62.31,58.083 L62.31,50.884 L59.718,50.884 L59.718,51.022 C59.718,51.147 59.707,51.388 59.686,51.745 L59.583,53.731 C59.499,55.185 59.175,56.272 58.612,56.997 C58.049,57.722 57.244,58.083 56.198,58.083" id="Fill-16" fill="#FF4C00"></path>
                <polyline id="Fill-17" fill="#FF4C00" points="67.166 58.083 67.166 49.657 68.633 49.657 68.633 56.035 72.645 49.657 74.206 49.657 74.206 58.083 72.74 58.083 72.74 51.706 68.736 58.083 67.166 58.083"></polyline>
                <path d="M77.501,58.083 L77.501,49.657 L79.062,49.657 L79.07,53.343 C79.799,53.343 80.267,53.272 80.473,53.134 C80.68,52.993 81.004,52.526 81.449,51.729 L81.655,51.372 C82.067,50.638 82.426,50.169 82.733,49.964 C83.04,49.76 83.544,49.657 84.248,49.657 L84.248,50.806 L84.16,50.806 C83.822,50.806 83.564,50.881 83.387,51.03 C83.21,51.181 82.976,51.519 82.686,52.048 L82.551,52.296 C82.239,52.859 82.006,53.219 81.853,53.374 C81.7,53.529 81.404,53.697 80.965,53.878 C81.377,53.987 81.665,54.112 81.829,54.255 C81.993,54.397 82.294,54.784 82.733,55.415 L83.105,55.942 L83.431,56.407 L83.843,57.005 C83.97,57.191 84.15,57.442 84.382,57.758 L84.62,58.083 L82.923,58.083 L82.686,57.766 C82.347,57.315 81.99,56.821 81.615,56.284 C81.145,55.616 80.685,55.018 80.235,54.491 L79.062,54.491 L79.062,58.083 L77.501,58.083" id="Fill-18" fill="#FF4C00"></path>
                <path d="M94.019,56.865 L98.133,56.865 L98.133,50.806 L95.54,50.806 L95.54,50.953 C95.54,52.009 95.414,53.028 95.16,54.015 C94.906,54.999 94.526,55.95 94.019,56.865 L94.019,56.865 Z M91.632,60 L91.632,56.865 L92.418,56.865 C93.003,56.012 93.444,55.041 93.737,53.952 C94.031,52.863 94.177,51.654 94.177,50.325 L94.177,49.657 L99.703,49.657 L99.703,56.865 L101.265,56.865 L101.265,60 L99.703,60 L99.703,58.083 L93.194,58.083 L93.194,60 L91.632,60 L91.632,60 Z" id="Fill-20" fill="#000000"></path>
                <path d="M106.91,57.13 C108.564,57.13 109.391,56.038 109.391,53.854 C109.391,51.698 108.575,50.62 106.941,50.62 C105.314,50.62 104.5,51.703 104.5,53.87 C104.5,56.043 105.302,57.13 106.91,57.13 L106.91,57.13 Z M106.886,58.277 C105.654,58.277 104.671,57.878 103.937,57.079 C103.203,56.28 102.834,55.21 102.834,53.87 C102.834,52.515 103.203,51.443 103.941,50.654 C104.677,49.866 105.678,49.472 106.941,49.472 C108.205,49.472 109.205,49.866 109.943,50.654 C110.679,51.443 111.048,52.511 111.048,53.854 C111.048,55.231 110.678,56.311 109.939,57.099 C109.199,57.884 108.181,58.277 106.886,58.277 L106.886,58.277 Z" id="Fill-22" fill="#000000"></path>
                <path d="M118.627,58.083 L118.627,49.657 L120.189,49.657 L120.197,53.343 C120.926,53.343 121.394,53.272 121.6,53.134 C121.806,52.993 122.131,52.526 122.576,51.729 L122.782,51.372 C123.194,50.638 123.553,50.169 123.86,49.964 C124.167,49.76 124.671,49.657 125.375,49.657 L125.375,50.806 L125.287,50.806 C124.949,50.806 124.691,50.881 124.514,51.03 C124.337,51.181 124.103,51.519 123.812,52.048 L123.677,52.296 C123.366,52.859 123.133,53.219 122.98,53.374 C122.827,53.529 122.531,53.697 122.091,53.878 C122.503,53.987 122.792,54.112 122.957,54.255 C123.12,54.397 123.421,54.784 123.86,55.415 L124.232,55.942 L124.558,56.407 L124.97,57.005 C125.097,57.191 125.277,57.442 125.509,57.758 L125.747,58.083 L124.05,58.083 L123.812,57.766 C123.474,57.315 123.117,56.821 122.742,56.284 C122.271,55.616 121.812,55.018 121.363,54.491 L120.189,54.491 L120.189,58.083 L118.627,58.083" id="Fill-23" fill="#000000"></path>
                <polyline id="Fill-24" fill="#000000" points="127.753 58.083 127.753 49.657 129.314 49.657 129.314 53.079 133.231 53.079 133.231 49.657 134.792 49.657 134.792 58.083 133.231 58.083 133.231 54.228 129.314 54.228 129.314 58.083 127.753 58.083"></polyline>
                <polyline id="Fill-25" fill="#000000" points="137.925 58.083 137.925 49.657 139.391 49.657 139.391 56.035 143.403 49.657 144.964 49.657 144.964 58.083 143.498 58.083 143.498 51.706 139.495 58.083 137.925 58.083"></polyline>
                <polyline id="Fill-26" fill="#000000" points="148.097 58.083 148.097 49.657 154.36 49.657 154.36 50.999 149.658 50.999 149.658 58.083 148.097 58.083"></polyline>
            </g>
            <g id="user" transform="translate(0.000000, 60.000000)">
                <g id="Mask" fill-rule="nonzero" fill="#EBEBEB">
                    <path d="M19.9993333,0 C8.9545,0 0,8.9545 0,19.9993333 C0,31.0443333 8.9545,39.9993333 19.9993333,39.9993333 C31.0443333,39.9993333 39.9993333,31.0443333 39.9993333,19.9993333 C39.9993333,8.9545 31.0443333,0 19.9993333,0 Z" id="path-1"></path>
                </g>
                <g id="Path-Clipped">
                    <g>
                        <mask id="mask-2" fill="white">
                            <use xlink:href="#path-1"></use>
                        </mask>
                        <g id="path-1"></g>
                        <path d="M20.1359223,40 L6,40 C6,29.9326054 14.9283459,29.934754 16.8737864,27.3613445 L17.1456311,26.0168067 C14.3531372,24.7051339 12.3880441,21.33725 12.2524272,17.4117647 C12.3880441,12.2079749 15.7969897,8 20.1359223,8 C24.2040951,8 27.6130407,12.2079749 27.7475728,17.4117647 C27.6130407,21.3036786 25.682932,24.6503454 22.8543689,26.0168067 L23.1262136,27.3613445 C25.3683436,29.9379768 34,30.1015367 34,40 L20.1359223,40 Z" id="Path" fill="#C4C4C6" fill-rule="nonzero" mask="url(#mask-2)"></path>
                    </g>
                </g>
            </g>
            <g id="user" transform="translate(40.000000, 60.000000)">
                <g id="Mask" fill-rule="nonzero" fill="#EBEBEB">
                    <path d="M14.9995,0 C6.715875,0 0,6.715875 0,14.9995 C0,23.28325 6.715875,29.9995 14.9995,29.9995 C23.28325,29.9995 29.9995,23.28325 29.9995,14.9995 C29.9995,6.715875 23.28325,0 14.9995,0 Z" id="path-1"></path>
                </g>
                <g id="Path-Clipped">
                    <g>
                        <mask id="mask-4" fill="white">
                            <use xlink:href="#path-3"></use>
                        </mask>
                        <g id="path-1"></g>
                        <path d="M15.1019417,30 L4.5,30 C4.5,22.449454 11.1962594,22.4510655 12.6553398,20.5210084 L12.8592233,19.512605 C10.7648529,18.5288504 9.29103308,16.0029375 9.1893204,13.0588235 C9.29103308,9.15598118 11.8477423,6 15.1019417,6 C18.1530713,6 20.7097805,9.15598118 20.8106796,13.0588235 C20.7097805,15.977759 19.262199,18.4877591 17.1407767,19.512605 L17.3446602,20.5210084 C19.0262577,22.4534826 25.5,22.5761525 25.5,30 L15.1019417,30 Z" id="Path" fill="#C4C4C6" fill-rule="nonzero" mask="url(#mask-4)"></path>
                    </g>
                </g>
            </g>
        </g>
    </g>
</svg>